<svg width="230" height="150" viewBox="0 0 230 150" fill="none" xmlns="http://www.w3.org/2000/svg">
    <path fill-rule="evenodd" clip-rule="evenodd"
        d="M122.421 63.9362C125.83 66.2112 128.139 70.008 128.373 74.3526C127.387 73.6943 126.308 73.1635 125.162 72.7835C124.696 70.7262 123.623 68.899 122.139 67.5016C121.341 66.7492 120.424 66.1215 119.418 65.6495C118.506 65.2211 117.521 64.921 116.487 64.773C116.002 64.7035 115.505 64.6674 115 64.6674C110.649 64.6674 106.919 67.3395 105.361 71.1303C106.217 71.6194 107.178 71.9437 108.201 72.06C108.479 72.0915 108.761 72.1077 109.048 72.1077C111.865 72.1077 114.319 70.538 115.583 68.2259L117.749 70.3926C115.886 73.2179 112.682 75.0838 109.048 75.0838C108.544 75.0838 108.046 75.0478 107.561 74.9783C106.527 74.8303 105.543 74.5302 104.63 74.1016C103.624 73.6298 102.708 73.0019 101.909 72.2497C102.151 71.126 102.535 70.0547 103.039 69.055C105.247 64.6883 109.776 61.6914 115 61.6914C115.296 61.6914 115.59 61.701 115.881 61.7199C117.036 61.795 118.152 62.0169 119.208 62.3671C120.356 62.7471 121.435 63.2779 122.421 63.9362ZM107.579 86.2314C104.17 83.9565 101.861 80.1596 101.627 75.8151C102.613 76.4734 103.692 77.0042 104.838 77.3841C105.304 79.4414 106.377 81.2687 107.861 82.6661C108.66 83.4185 109.578 84.0461 110.582 84.5181C111.495 84.9466 112.479 85.2467 113.513 85.3947C113.998 85.4642 114.495 85.5002 115 85.5002C119.351 85.5002 123.081 82.8281 124.639 79.0374C123.783 78.5483 122.822 78.224 121.799 78.1077C121.521 78.0761 121.239 78.0599 120.952 78.0599C118.135 78.0599 115.681 79.6297 114.417 81.9418L112.251 79.775C114.114 76.9498 117.318 75.0838 120.952 75.0838C121.456 75.0838 121.954 75.1199 122.439 75.1894C123.473 75.3374 124.457 75.6375 125.37 76.0661C126.376 76.5379 127.292 77.1657 128.091 77.918C127.849 79.0417 127.465 80.1129 126.961 81.1127C124.753 85.4794 120.224 88.4763 115 88.4763C114.704 88.4763 114.41 88.4667 114.119 88.4478C112.964 88.3727 111.849 88.1507 110.792 87.8005C109.644 87.4206 108.565 86.8898 107.579 86.2314ZM86.3341 94.973L91.2784 90.8795L95.0299 95.4118L94.2881 96.0259L91.1553 92.2421L89.802 93.3622L92.3214 96.4043L91.5655 97.0296L89.0478 93.9875L87.6945 95.1076L90.8272 98.8913L90.0854 99.5053L86.3341 94.973ZM92.6763 101.775C92.5069 101.645 92.3874 101.485 92.3143 101.295C92.2429 101.105 92.218 100.909 92.2376 100.707C92.259 100.505 92.334 100.319 92.4642 100.15L92.5462 100.044L93.3092 100.63L93.2434 100.715C93.2077 100.762 93.1934 100.817 93.2023 100.88C93.2094 100.942 93.2379 100.992 93.2843 101.028L95.5755 102.787C95.6218 102.823 95.6754 102.836 95.736 102.826C95.7966 102.816 95.8447 102.788 95.8803 102.741L96.3049 102.189C96.3405 102.142 96.3566 102.088 96.3494 102.027C96.3441 101.967 96.3173 101.918 96.2709 101.882L93.9583 100.106C93.789 99.9761 93.6677 99.8172 93.5946 99.6296C93.5215 99.4422 93.4947 99.2463 93.5161 99.0421C93.5392 98.8379 93.6159 98.6509 93.7461 98.4813L94.2007 97.8874C94.3327 97.7177 94.4914 97.5971 94.6822 97.5255C94.8712 97.4539 95.0673 97.4283 95.2688 97.4484C95.4721 97.4686 95.6575 97.5438 95.8269 97.6742L98.1591 99.4663C98.3303 99.5966 98.4515 99.7575 98.5246 99.9491C98.5995 100.141 98.6245 100.337 98.6031 100.537C98.58 100.737 98.5033 100.922 98.3731 101.091L98.2911 101.197L97.5208 100.605L97.5868 100.521C97.6224 100.474 97.6367 100.42 97.6314 100.359C97.626 100.298 97.5994 100.25 97.553 100.214L95.2617 98.4541C95.2135 98.4179 95.1601 98.4038 95.0977 98.412C95.0352 98.4202 94.9853 98.448 94.9496 98.4951L94.5253 99.0466C94.4896 99.0936 94.4753 99.1486 94.4825 99.211C94.4914 99.2735 94.52 99.3229 94.5664 99.3591L96.879 101.135C97.0483 101.265 97.1713 101.425 97.2462 101.614C97.3229 101.804 97.3479 101.999 97.323 102.202C97.2998 102.404 97.2212 102.59 97.091 102.76L96.6347 103.354C96.5045 103.524 96.3458 103.645 96.1586 103.719C95.9714 103.792 95.7753 103.817 95.5702 103.796C95.367 103.774 95.1796 103.697 95.0102 103.567L92.6763 101.775ZM98.7137 105.807C98.5229 105.709 98.3749 105.572 98.268 105.396C98.161 105.221 98.1022 105.032 98.0879 104.831C98.0754 104.631 98.1182 104.435 98.2162 104.245L100.809 99.2327L101.665 99.6751L100.914 101.124L102.799 102.099L102.356 102.954L100.472 101.979L99.0846 104.664C99.0561 104.716 99.0525 104.773 99.0721 104.833C99.0899 104.893 99.1273 104.937 99.179 104.964L100.866 105.837L100.424 106.692L98.7137 105.807ZM103.136 107.805C102.931 107.741 102.761 107.632 102.626 107.481C102.488 107.328 102.399 107.152 102.353 106.95C102.307 106.749 102.315 106.549 102.378 106.351L103.237 103.63C103.302 103.426 103.408 103.258 103.56 103.125C103.712 102.992 103.886 102.9 104.086 102.851C104.286 102.802 104.487 102.81 104.69 102.874L107.684 103.818L108.194 102.203L109.113 102.493L107.046 109.039L103.136 107.805ZM103.458 106.897L106.213 107.767C106.27 107.785 106.325 107.779 106.377 107.749C106.431 107.719 106.466 107.675 106.484 107.619L107.328 104.949C107.345 104.892 107.34 104.836 107.315 104.781C107.288 104.726 107.247 104.69 107.19 104.672L104.435 103.803C104.378 103.785 104.321 103.791 104.266 103.82C104.211 103.849 104.173 103.892 104.155 103.948L103.314 106.618C103.296 106.675 103.301 106.731 103.33 106.787C103.358 106.843 103.401 106.88 103.458 106.897ZM108.916 109.324L109.07 108.374L110.02 108.528L109.867 109.479L108.916 109.324ZM115.05 110L114.823 107.577C114.804 107.358 114.838 107.158 114.925 106.976C115.013 106.795 115.139 106.645 115.303 106.525C115.469 106.405 115.658 106.335 115.872 106.316L119.928 105.939C119.987 105.933 120.037 105.906 120.076 105.857C120.117 105.809 120.135 105.755 120.13 105.696L119.998 104.284C119.993 104.225 119.966 104.176 119.918 104.135C119.868 104.095 119.814 104.078 119.755 104.083L115.726 104.458C115.667 104.463 115.617 104.49 115.576 104.539C115.537 104.587 115.519 104.641 115.524 104.7L115.556 105.046L114.597 105.135L114.563 104.763C114.542 104.544 114.576 104.344 114.663 104.162C114.75 103.981 114.877 103.829 115.043 103.706C115.207 103.584 115.396 103.512 115.608 103.493L119.693 103.113C119.9 103.094 120.096 103.129 120.28 103.22C120.463 103.31 120.619 103.436 120.74 103.598C120.863 103.76 120.934 103.95 120.954 104.169L121.091 105.633C121.111 105.847 121.075 106.045 120.984 106.23C120.895 106.414 120.766 106.566 120.602 106.686C120.437 106.806 120.251 106.876 120.044 106.895L115.986 107.272C115.927 107.277 115.877 107.304 115.838 107.353C115.797 107.401 115.779 107.455 115.786 107.514L115.899 108.73C115.904 108.789 115.931 108.839 115.979 108.88C116.027 108.92 116.082 108.937 116.141 108.932L121.351 108.448L121.44 109.406L115.05 110ZM125.103 108.422C124.903 108.496 124.702 108.512 124.498 108.47C124.297 108.427 124.115 108.339 123.954 108.205C123.794 108.071 123.678 107.906 123.605 107.711L122.202 103.906C122.127 103.705 122.107 103.503 122.145 103.3C122.18 103.096 122.261 102.914 122.389 102.753C122.516 102.592 122.68 102.474 122.881 102.4L126.729 100.98C126.923 100.908 127.121 100.892 127.323 100.932C127.524 100.972 127.706 101.057 127.868 101.187C128.031 101.317 128.148 101.482 128.223 101.683L129.628 105.489C129.699 105.684 129.717 105.885 129.68 106.092C129.641 106.299 129.56 106.485 129.434 106.649C129.307 106.812 129.147 106.93 128.951 107.002L125.103 108.422ZM124.875 107.442L128.58 106.075C128.635 106.054 128.678 106.017 128.705 105.962C128.731 105.908 128.735 105.853 128.715 105.797L127.594 102.761L124.875 107.442ZM124.231 106.625L126.943 101.947L123.245 103.311C123.19 103.332 123.149 103.371 123.122 103.428C123.097 103.485 123.093 103.542 123.113 103.597L124.231 106.625ZM132.399 105.358L130.996 103.369C130.869 103.189 130.798 102.999 130.783 102.798C130.769 102.598 130.803 102.404 130.887 102.218C130.971 102.032 131.099 101.877 131.274 101.754L134.603 99.4048C134.651 99.3704 134.681 99.3222 134.692 99.2602C134.703 99.1979 134.69 99.1427 134.656 99.0942L133.84 97.9359C133.806 97.8874 133.756 97.8578 133.695 97.8471C133.633 97.8362 133.578 97.848 133.529 97.8824L130.222 100.216C130.174 100.25 130.143 100.299 130.133 100.361C130.122 100.423 130.135 100.478 130.168 100.527L130.368 100.811L129.582 101.366L129.366 101.06C129.24 100.88 129.168 100.69 129.154 100.489C129.14 100.289 129.174 100.094 129.256 99.9055C129.338 99.717 129.464 99.561 129.639 99.4376L132.991 97.0729C133.16 96.9531 133.348 96.8862 133.553 96.8725C133.758 96.8588 133.954 96.8916 134.139 96.9707C134.326 97.0499 134.483 97.1792 134.61 97.3589L135.459 98.5607C135.582 98.7356 135.651 98.9255 135.664 99.1304C135.678 99.3354 135.642 99.5308 135.56 99.717C135.476 99.903 135.35 100.056 135.181 100.176L131.852 102.525C131.803 102.56 131.773 102.608 131.762 102.67C131.752 102.732 131.764 102.787 131.798 102.836L132.502 103.834C132.536 103.882 132.584 103.912 132.647 103.923C132.709 103.933 132.765 103.922 132.813 103.887L137.088 100.87L137.643 101.656L132.399 105.358ZM140.292 99.0211C140.15 99.1894 139.982 99.3049 139.79 99.3679C139.597 99.4308 139.401 99.4478 139.2 99.4187C138.998 99.3894 138.816 99.306 138.654 99.1682L138.449 98.9959L139.075 98.2526L139.258 98.4075C139.305 98.4459 139.357 98.4635 139.417 98.4603C139.48 98.4573 139.529 98.4328 139.567 98.3874L142.179 95.2842C142.218 95.2387 142.233 95.1857 142.225 95.1253C142.218 95.0647 142.192 95.0153 142.147 94.9769L141.097 94.0927C141.05 94.0546 140.997 94.0369 140.936 94.0401C140.876 94.0432 140.826 94.0674 140.788 94.1129L138.164 97.2298L137.427 96.6097L139.874 93.7042C139.916 93.6543 139.932 93.599 139.925 93.5384C139.918 93.4779 139.891 93.4285 139.847 93.3902L138.879 92.575C138.832 92.5367 138.779 92.519 138.718 92.5222C138.657 92.5252 138.606 92.5518 138.565 92.6019L136.129 95.4937C136.092 95.5391 136.076 95.5921 136.083 95.6527C136.09 95.7132 136.117 95.7626 136.161 95.8009L136.414 96.0132L135.789 96.7568L135.516 96.5271C135.348 96.3854 135.23 96.2194 135.166 96.0288C135.102 95.8381 135.086 95.6402 135.118 95.435C135.152 95.2296 135.238 95.0452 135.375 94.8814L137.837 91.9556C137.98 91.7874 138.148 91.6706 138.342 91.6054C138.536 91.5401 138.732 91.5244 138.93 91.5581C139.126 91.5918 139.31 91.6796 139.478 91.8211L140.487 92.6709C140.546 92.7207 140.601 92.7761 140.649 92.8373C140.699 92.8983 140.74 92.9614 140.77 93.0261C140.954 93.0104 141.125 93.0336 141.282 93.096C141.439 93.1584 141.578 93.2395 141.696 93.339L142.787 94.2577C142.951 94.3955 143.065 94.5597 143.129 94.7501C143.195 94.9407 143.211 95.1376 143.181 95.3407C143.149 95.5436 143.067 95.7247 142.933 95.8838L140.292 99.0211ZM88.3221 64.7857C88.2222 65.0012 88.0761 65.1754 87.8817 65.3086C87.6891 65.4416 87.4752 65.5194 87.2434 65.5419C87.0098 65.5645 86.7851 65.5256 86.5693 65.4252L86.0273 65.1733L86.6104 63.9203L87.0882 64.1423L88.6216 60.8444L87.6035 60.3705L86.0433 63.7249C85.9417 63.9405 85.7955 64.1149 85.6029 64.2479C85.4104 64.3809 85.1981 64.4594 84.9663 64.4831C84.7363 64.5068 84.5099 64.4674 84.2888 64.3645L83.1424 63.8305C82.9213 63.7276 82.7447 63.5803 82.6146 63.3885C82.4844 63.1968 82.4077 62.9843 82.3863 62.7508C82.3631 62.5174 82.4024 62.293 82.5023 62.0774L84.0981 58.6504C84.198 58.4348 84.3441 58.2618 84.5348 58.1315C84.7274 58.001 84.9396 57.9227 85.1714 57.8961C85.4032 57.8698 85.6296 57.9079 85.8507 58.0108L86.391 58.2627L85.8009 59.5317L85.3248 59.3097L83.7896 62.6077L84.8077 63.0816L86.3767 59.7109C86.4766 59.4955 86.6228 59.3226 86.8154 59.1922C87.0061 59.0617 87.2184 58.9834 87.4502 58.9569C87.682 58.9305 87.9084 58.9686 88.1295 59.0715L89.2778 59.6056C89.4936 59.7059 89.6665 59.8539 89.7985 60.0495C89.9304 60.2453 90.0088 60.4586 90.032 60.6893C90.0552 60.9198 90.0178 61.1429 89.9179 61.3585L88.3221 64.7857ZM91.0306 59.2998L89.1173 57.7107C88.9337 57.5588 88.8053 57.3744 88.7304 57.1578C88.6555 56.941 88.6359 56.7202 88.6715 56.4952C88.709 56.2704 88.8017 56.0664 88.9533 55.8834L91.2784 53.0851L90.2977 52.2706L88.0137 55.021L88.4112 55.3514L87.5394 56.4007L87.0865 56.0248C86.9046 55.8729 86.7745 55.6886 86.6996 55.4717C86.6247 55.2551 86.605 55.0342 86.6425 54.8093C86.6781 54.5843 86.7726 54.3805 86.9242 54.1976L89.2885 51.3513C89.44 51.1684 89.6219 51.0385 89.8377 50.9617C90.0516 50.8848 90.2727 50.8633 90.4992 50.8972C90.7256 50.931 90.9307 51.0239 91.1144 51.1758L92.2039 52.0814C92.3875 52.2332 92.5159 52.4176 92.5908 52.6344C92.6657 52.851 92.687 53.0728 92.6531 53.2996C92.6192 53.5266 92.5264 53.7315 92.3731 53.9142L90.0499 56.7126L90.8523 57.3791L94.0081 53.5794L95.0567 54.4508L91.0306 59.2998ZM95.8911 53.6675L92.1736 48.434L96.1283 45.6257C96.3209 45.4881 96.5349 45.41 96.7649 45.3916C96.9967 45.3733 97.2196 45.41 97.4335 45.5018C97.6493 45.5937 97.8258 45.7388 97.9685 45.9374L98.6637 46.9188C98.7083 46.9818 98.7476 47.0436 98.7797 47.1046C98.8118 47.1654 98.8367 47.2269 98.8509 47.2892C98.9882 47.3296 99.1255 47.3933 99.2593 47.4799C99.3948 47.5668 99.5054 47.6707 99.591 47.7918L100.359 48.8748C100.497 49.0686 100.575 49.2831 100.593 49.5185C100.611 49.7539 100.573 49.9776 100.479 50.1898C100.386 50.402 100.24 50.5787 100.04 50.7197L95.8911 53.6675ZM94.725 49.6401L97.487 47.6784L96.8682 46.8061L94.1064 48.7678L94.725 49.6401ZM96.2121 51.7334L99.1772 49.6271L98.4962 48.6676L95.5309 50.7739L96.2121 51.7334ZM105.461 48.1131C105.259 48.1682 105.06 48.1691 104.86 48.1161C104.66 48.063 104.487 47.9656 104.341 47.8242C104.195 47.6827 104.091 47.5087 104.036 47.3024L103.936 46.9413L104.865 46.6863L104.956 47.0217C104.972 47.0789 105.008 47.1232 105.063 47.1544C105.118 47.1856 105.174 47.1932 105.231 47.1775L109.134 46.1056C109.191 46.0899 109.234 46.0549 109.262 46.0009C109.291 45.9471 109.296 45.8912 109.282 45.834L108.932 44.5616C108.914 44.4987 108.881 44.4539 108.831 44.4277C108.779 44.4015 108.726 44.3963 108.668 44.412L104.74 45.491C104.539 45.5461 104.339 45.5457 104.139 45.4897C103.938 45.4337 103.765 45.3351 103.619 45.1935C103.471 45.052 103.369 44.8781 103.312 44.6718L102.95 43.3477C102.893 43.1414 102.891 42.9399 102.945 42.7435C102.998 42.5468 103.098 42.3747 103.243 42.2273C103.387 42.0796 103.56 41.9784 103.76 41.9233L107.714 40.8372C107.916 40.7821 108.116 40.781 108.315 40.8342C108.513 40.8873 108.688 40.9845 108.834 41.1261C108.98 41.2676 109.082 41.4415 109.139 41.648L109.239 42.009L108.301 42.2663L108.208 41.9311C108.194 41.8737 108.16 41.8291 108.107 41.797C108.055 41.7651 108.002 41.7571 107.944 41.7728L104.041 42.8447C103.984 42.8604 103.94 42.8957 103.908 42.9505C103.877 43.0052 103.869 43.0614 103.885 43.1186L104.234 44.391C104.252 44.4539 104.287 44.4983 104.341 44.5236C104.393 44.5491 104.448 44.554 104.507 44.5383L108.435 43.4593C108.636 43.4043 108.836 43.4046 109.036 43.4606C109.237 43.5164 109.41 43.6152 109.556 43.7568C109.703 43.8983 109.804 44.0722 109.861 44.2785L110.225 45.6024C110.282 45.8087 110.284 46.0102 110.23 46.2068C110.175 46.4035 110.077 46.5756 109.933 46.723C109.788 46.8707 109.615 46.972 109.415 47.027L105.461 48.1131ZM112.634 46.6145C112.42 46.621 112.226 46.5734 112.049 46.4718C111.874 46.3703 111.73 46.235 111.618 46.066C111.505 45.8971 111.446 45.7056 111.439 45.4918L111.35 42.6402C111.345 42.4264 111.391 42.2317 111.493 42.0561C111.594 41.8805 111.73 41.7366 111.899 41.6242C112.069 41.5121 112.26 41.4527 112.473 41.4459L115.414 41.355C115.628 41.3484 115.824 41.3944 116.002 41.493C116.18 41.5914 116.325 41.7284 116.435 41.9033C116.544 42.0784 116.603 42.2697 116.608 42.4776L116.697 45.3292C116.703 45.543 116.658 45.7377 116.558 45.9132C116.46 46.0888 116.325 46.2327 116.154 46.345C115.981 46.4574 115.788 46.5169 115.574 46.5235L112.634 46.6145ZM112.63 45.6512L115.517 45.5619C115.578 45.5601 115.626 45.5362 115.667 45.4904C115.708 45.4446 115.726 45.392 115.724 45.3324L115.638 42.5345C115.637 42.4751 115.613 42.4238 115.571 42.3804C115.528 42.3371 115.476 42.3164 115.417 42.3184L112.531 42.4075C112.472 42.4095 112.42 42.4334 112.375 42.4792C112.333 42.5252 112.313 42.5778 112.315 42.6372L112.4 45.4353C112.402 45.4947 112.427 45.546 112.472 45.5892C112.518 45.6323 112.572 45.653 112.63 45.6512ZM117.662 46.636L118.493 40.9911C118.523 40.7794 118.604 40.5945 118.732 40.4362C118.86 40.2779 119.019 40.16 119.208 40.0828C119.397 40.0054 119.597 39.9822 119.809 40.0134L121.713 40.2943L121.574 41.2468L119.695 40.9699C119.636 40.9613 119.581 40.9757 119.531 41.0134C119.481 41.051 119.451 41.0991 119.442 41.158L119.369 41.6606L121.467 41.97L121.326 42.9225L119.228 42.6133L118.614 46.7764L117.662 46.636ZM122.587 47.5737C122.38 47.5142 122.209 47.4084 122.07 47.2569C121.931 47.1053 121.836 46.9322 121.785 46.7377C121.733 46.5431 121.736 46.3432 121.795 46.1377L123.368 40.7179L124.293 40.9863L123.839 42.553L125.877 43.1445L125.607 44.0692L123.571 43.4777L122.728 46.3803C122.712 46.4374 122.719 46.4936 122.749 46.5488C122.779 46.6041 122.822 46.6399 122.879 46.6565L124.703 47.1857L124.436 48.1104L122.587 47.5737ZM126.864 49.0214L127.633 43.5189L128.526 44.0223L128.064 47.6919L131.042 45.4408L131.998 45.9795L131.686 49.7444L134.514 47.3981L135.407 47.9016L131.174 51.4513L130.491 51.066L130.867 46.8773L127.547 49.4067L126.864 49.0214ZM134.064 53.8174C133.913 53.6666 133.813 53.4915 133.765 53.292C133.715 53.0924 133.715 52.8949 133.763 52.6993C133.809 52.5039 133.909 52.3302 134.061 52.1784L135.405 50.8253L138.447 53.8484L139.094 53.1973C139.135 53.155 139.159 53.1035 139.16 53.0427C139.162 52.9817 139.141 52.9302 139.1 52.8883L136.209 50.016L136.889 49.3331L139.797 52.2243C139.948 52.3751 140.05 52.5493 140.102 52.7467C140.152 52.9441 140.152 53.1425 140.1 53.3424C140.048 53.5421 139.948 53.7158 139.802 53.8634L136.974 56.7086L134.064 53.8174ZM134.763 53.1534L136.964 55.3407L137.812 54.4871L135.453 52.1428L134.762 52.8382C134.721 52.8804 134.699 52.933 134.699 52.996C134.699 53.0591 134.721 53.1115 134.763 53.1534ZM137.454 57.3764L140.769 55.1176C140.947 54.9971 141.136 54.9325 141.339 54.924C141.541 54.9152 141.737 54.9534 141.924 55.0379C142.111 55.1226 142.263 55.251 142.38 55.4229L144.007 57.81L143.211 58.3521L141.599 55.987C141.566 55.938 141.518 55.9075 141.457 55.8957C141.394 55.884 141.339 55.8949 141.289 55.9284L137.996 58.1722L137.454 57.3764ZM140.539 62.2783C140.453 62.0824 140.425 61.8841 140.453 61.6832C140.482 61.4824 140.553 61.2984 140.667 61.131C140.781 60.9637 140.938 60.8369 141.134 60.751L143.745 59.6029C143.941 59.5168 144.139 59.4879 144.34 59.5166C144.542 59.5451 144.725 59.6168 144.893 59.7314C145.061 59.8463 145.187 60.0016 145.273 60.1973L146.457 62.8906C146.542 63.0866 146.572 63.2856 146.547 63.488C146.524 63.6903 146.451 63.8751 146.33 64.042C146.209 64.209 146.052 64.3344 145.861 64.418L144.115 65.1858L142.386 61.252L141.546 61.6216C141.491 61.6455 141.452 61.6869 141.43 61.7456C141.407 61.8042 141.407 61.8609 141.43 61.9153L143.07 65.6451L142.19 66.0325L140.539 62.2783ZM143.21 60.8897L144.549 63.9339L145.446 63.5391C145.501 63.5152 145.54 63.4753 145.563 63.4193C145.588 63.3633 145.588 63.3081 145.565 63.2537L144.403 60.6094C144.378 60.5548 144.337 60.5163 144.278 60.4935C144.219 60.4705 144.162 60.471 144.108 60.4949L143.21 60.8897ZM84.2425 78.115C85.4728 78.115 86.4713 79.1137 86.4713 80.3438C86.4713 81.5739 85.4728 82.5726 84.2425 82.5726C83.0122 82.5726 82.0137 81.5739 82.0137 80.3438C82.0137 79.1137 83.0122 78.115 84.2425 78.115ZM145.758 78.115C146.988 78.115 147.986 79.1137 147.986 80.3438C147.986 81.5739 146.988 82.5726 145.758 82.5726C144.527 82.5726 143.529 81.5739 143.529 80.3438C143.529 79.1137 144.527 78.115 145.758 78.115Z"
        fill="#003C5D" />
    <rect x="0.5" y="0.5" width="229" height="149" />
</svg>