<svg width="230" height="150" viewBox="0 0 230 150" fill="none" xmlns="http://www.w3.org/2000/svg">
    <path
        d="M70.459 74.454C70.283 71.21 68.5591 68.375 66.0151 66.6762C65.2771 66.1846 64.4731 65.7882 63.6151 65.5046C62.8271 65.2432 61.9931 65.0774 61.1311 65.0214C60.9131 65.0072 60.6951 65 60.4731 65C56.5731 65 53.1911 67.2378 51.5431 70.4984C51.1651 71.2448 50.8791 72.0448 50.6991 72.8838C51.2951 73.4456 51.9791 73.9142 52.7291 74.2666C53.4111 74.5866 54.1471 74.8106 54.9191 74.9212C55.2811 74.9732 55.6511 75 56.0291 75C58.7431 75 61.1351 73.6068 62.5271 71.497L60.909 69.8792C59.965 71.6056 58.1331 72.7778 56.0291 72.7778C55.8151 72.7778 55.6051 72.7656 55.3971 72.7422C54.6311 72.6554 53.9151 72.4132 53.2771 72.048C54.4391 69.2174 57.2251 67.2222 60.4731 67.2222C60.8511 67.2222 61.2211 67.2492 61.5831 67.301C62.3551 67.4116 63.0911 67.6356 63.7731 67.9556C64.5231 68.308 65.2071 68.7766 65.8051 69.3384C66.9111 70.3818 67.713 71.7464 68.061 73.2824C68.917 73.566 69.723 73.9624 70.459 74.454Z"
        fill="#08354B" />
    <path
        d="M50.4891 75.546C50.6631 78.79 52.3871 81.625 54.9331 83.3238C55.6691 83.8154 56.4751 84.2118 57.3311 84.4954C58.1211 84.7568 58.9531 84.9226 59.8151 84.9786C60.0331 84.9928 60.2531 85 60.4731 85C64.3731 85 67.7551 82.7622 69.4031 79.5016C69.7811 78.7552 70.0671 77.9552 70.2491 77.1162C69.6531 76.5544 68.9671 76.0858 68.2171 75.7334C67.5351 75.4134 66.8011 75.1894 66.0291 75.0788C65.6651 75.0268 65.2951 75 64.9171 75C62.2031 75 59.8131 76.3932 58.4211 78.503L60.0391 80.1208C60.9811 78.3944 62.8131 77.2222 64.9171 77.2222C65.1311 77.2222 65.3431 77.2344 65.5511 77.2578C66.3151 77.3446 67.0331 77.5868 67.6711 77.952C66.5071 80.7826 63.7211 82.7778 60.4731 82.7778C60.0971 82.7778 59.725 82.7508 59.363 82.699C58.5911 82.5884 57.8551 82.3644 57.1751 82.0444C56.4231 81.692 55.7391 81.2234 55.1431 80.6616C54.0351 79.6182 53.2331 78.2536 52.8871 76.7176C52.0291 76.434 51.2251 76.0376 50.4891 75.546Z"
        fill="#08354B" />
    <path fill-rule="evenodd" clip-rule="evenodd"
        d="M77.3817 80C77.035 80 76.7155 79.9133 76.4214 79.7401C76.1253 79.567 75.8915 79.3332 75.7201 79.0388C75.5467 78.7445 75.459 78.4242 75.459 78.0779V77.2077H77.4733V77.9741H82.7719V76.3377H77.3817C77.035 76.3377 76.7155 76.251 76.4214 76.0778C76.1253 75.9047 75.8915 75.6732 75.7201 75.3832C75.5467 75.0931 75.459 74.7705 75.459 74.4156V72.5714C75.459 72.2165 75.5467 71.8941 75.7201 71.604C75.8915 71.3139 76.1253 71.0823 76.4214 70.9091C76.7155 70.736 77.035 70.6495 77.3817 70.6495H82.8869C83.2336 70.6495 83.5531 70.736 83.8433 70.9091C84.1316 71.0823 84.3654 71.3139 84.5427 71.604C84.7219 71.8941 84.8096 72.2165 84.8096 72.5714V73.4416H82.7719V72.6754H77.4733V74.3118H82.8869C83.2336 74.3118 83.5531 74.3983 83.8433 74.5714C84.1316 74.7446 84.3654 74.9762 84.5427 75.2663C84.7219 75.5564 84.8096 75.8788 84.8096 76.2337V78.0779C84.8096 78.4242 84.7219 78.7445 84.5427 79.0388C84.3654 79.3332 84.1316 79.567 83.8433 79.7401C83.5531 79.9133 83.2336 80 82.8869 80H77.3817ZM86.2511 80V76.3767C86.2511 76.0303 86.3388 75.7143 86.5121 75.4286C86.6836 75.1428 86.9134 74.9157 87.1998 74.7468C87.4862 74.5779 87.8017 74.4935 88.1465 74.4935H93.4471V72.6365H88.2381V73.3896H86.2511V72.5324C86.2511 72.1863 86.3388 71.8701 86.5121 71.5845C86.6836 71.2988 86.9134 71.0714 87.1998 70.9027C87.4862 70.7338 87.8017 70.6495 88.1465 70.6495H93.5367C93.8834 70.6495 94.199 70.7338 94.4854 70.9027C94.7698 71.0714 94.9997 71.2988 95.1731 71.5845C95.3464 71.8701 95.4341 72.1863 95.4341 72.5324V74.5973C95.4341 74.9437 95.3464 75.2597 95.1731 75.5454C94.9997 75.8312 94.7698 76.0605 94.4854 76.2337C94.199 76.4069 93.8834 76.4936 93.5367 76.4936H88.2381V78.013H95.4341V80H86.2511ZM97.0568 80V70.6495H104.12C104.467 70.6495 104.787 70.736 105.077 70.9091C105.365 71.0823 105.599 71.3139 105.776 71.604C105.955 71.8941 106.043 72.2165 106.043 72.5714V74.3246C106.043 74.4372 106.037 74.5434 106.024 74.6429C106.012 74.7425 105.987 74.8356 105.953 74.9221C106.082 75.0865 106.191 75.277 106.277 75.4934C106.364 75.7099 106.407 75.9265 106.407 76.1429V78.0779C106.407 78.4242 106.318 78.7445 106.14 79.0388C105.963 79.3332 105.729 79.567 105.439 79.7401C105.149 79.9133 104.827 80 104.473 80H97.0568ZM99.0691 74.2338H104.005V72.6754H99.0691V74.2338ZM99.0691 77.9741H104.368V76.2598H99.0691V77.9741ZM113.395 80C113.073 80 112.781 79.9221 112.518 79.7662C112.253 79.6104 112.043 79.3983 111.887 79.1298C111.731 78.8614 111.653 78.567 111.653 78.2468V77.6234H113.212V78.1948C113.212 78.2641 113.233 78.3202 113.276 78.3637C113.321 78.4069 113.377 78.4285 113.446 78.4285H119.186C119.255 78.4285 119.313 78.4069 119.362 78.3637C119.408 78.3202 119.432 78.2641 119.432 78.1948V76.3377C119.432 76.2771 119.408 76.2251 119.362 76.1819C119.313 76.1384 119.255 76.1168 119.186 76.1168H113.395C113.073 76.1168 112.781 76.0367 112.518 75.8766C112.253 75.7165 112.043 75.5043 111.887 75.2402C111.731 74.9762 111.653 74.684 111.653 74.3636V72.4027C111.653 72.0822 111.731 71.7879 111.887 71.5195C112.043 71.2512 112.253 71.0391 112.518 70.8832C112.781 70.7274 113.073 70.6495 113.395 70.6495H119.251C119.572 70.6495 119.864 70.7274 120.127 70.8832C120.392 71.0391 120.605 71.2512 120.764 71.5195C120.924 71.7879 121.004 72.0822 121.004 72.4027V73.0261H119.432V72.4545C119.432 72.3854 119.408 72.3291 119.362 72.2858C119.313 72.2424 119.255 72.2207 119.186 72.2207H113.446C113.377 72.2207 113.321 72.2424 113.276 72.2858C113.233 72.3291 113.212 72.3854 113.212 72.4545V74.3118C113.212 74.3723 113.233 74.4242 113.276 74.4676C113.321 74.5108 113.377 74.5325 113.446 74.5325H119.251C119.572 74.5325 119.864 74.6125 120.127 74.7727C120.392 74.933 120.605 75.1449 120.764 75.4091C120.924 75.6732 121.004 75.9654 121.004 76.2857V78.2468C121.004 78.567 120.924 78.8614 120.764 79.1298C120.605 79.3983 120.392 79.6104 120.127 79.7662C119.864 79.9221 119.572 80 119.251 80H113.395ZM124.082 80C123.762 80 123.472 79.9199 123.213 79.7596C122.952 79.5995 122.742 79.3895 122.582 79.1298C122.422 78.8701 122.342 78.5801 122.342 78.2596V74.2077C122.342 73.8875 122.422 73.5974 122.582 73.3378C122.742 73.0779 122.952 72.8681 123.213 72.7078C123.472 72.5476 123.762 72.4676 124.082 72.4676H128.251C128.58 72.4676 128.874 72.5476 129.135 72.7078C129.394 72.8681 129.601 73.0779 129.756 73.3378C129.914 73.5974 129.99 73.8875 129.99 74.2077V78.2596C129.99 78.5801 129.914 78.8701 129.756 79.1298C129.601 79.3895 129.394 79.5995 129.135 79.7596C128.874 79.9199 128.58 80 128.251 80H124.082ZM124.134 78.4544H128.198C128.268 78.4544 128.327 78.4307 128.375 78.3831C128.422 78.3354 128.445 78.277 128.445 78.2078V74.2598C128.445 74.1904 128.422 74.132 128.375 74.0844C128.327 74.0369 128.268 74.0129 128.198 74.0129H124.134C124.064 74.0129 124.006 74.0369 123.959 74.0844C123.91 74.132 123.887 74.1904 123.887 74.2598V78.2078C123.887 78.277 123.91 78.3354 123.959 78.3831C124.006 78.4307 124.064 78.4544 124.134 78.4544ZM131.354 80V71.7404C131.354 71.4199 131.434 71.1277 131.589 70.8638C131.743 70.5996 131.954 70.3896 132.219 70.2338C132.482 70.0779 132.774 70 133.095 70H135.914V71.5584H133.148C133.078 71.5584 133.019 71.5824 132.971 71.6299C132.924 71.6774 132.9 71.7316 132.9 71.7922V72.4676H135.914V74.0129H132.9V80H131.354ZM138.836 80C138.515 80 138.223 79.9199 137.96 79.7596C137.695 79.5995 137.484 79.3895 137.328 79.1298C137.173 78.8701 137.095 78.5801 137.095 78.2596V70.1169H138.641V72.4676H141.653V74.0129H138.641V78.2078C138.641 78.277 138.665 78.3354 138.711 78.3831C138.76 78.4307 138.819 78.4544 138.887 78.4544H141.653V80H138.836ZM145.432 80L142.471 72.4676H144.121L146.056 77.1818L148.107 72.4676H149.784L151.964 77.2077L153.756 72.4676H155.42L152.576 80H151.354L148.952 74.6883L146.667 80H145.432ZM158.016 80C157.697 80 157.405 79.9199 157.14 79.7596C156.877 79.5995 156.666 79.3895 156.511 79.1298C156.355 78.8701 156.277 78.5801 156.277 78.2596V75.4545H162.38V74.2598C162.38 74.1904 162.357 74.132 162.31 74.0844C162.261 74.0369 162.203 74.0129 162.133 74.0129H156.277V72.4676H162.185C162.514 72.4676 162.809 72.5476 163.068 72.7078C163.329 72.8681 163.537 73.0779 163.691 73.3378C163.847 73.5974 163.927 73.8875 163.927 74.2077V80H158.016ZM158.069 78.4544H162.38V76.8701H157.822V78.2078C157.822 78.277 157.845 78.3354 157.894 78.3831C157.94 78.4307 157.999 78.4544 158.069 78.4544ZM165.068 80V74.2077C165.068 73.8875 165.148 73.5974 165.308 73.3378C165.47 73.0779 165.682 72.8681 165.945 72.7078C166.21 72.5476 166.498 72.4676 166.808 72.4676H171.004V74.0129H166.86C166.792 74.0129 166.734 74.0369 166.685 74.0844C166.638 74.132 166.613 74.1904 166.613 74.2598V80H165.068ZM173.601 80C173.281 80 172.991 79.9199 172.732 79.7596C172.471 79.5995 172.26 79.3895 172.101 79.1298C171.941 78.8701 171.861 78.5801 171.861 78.2596V74.2077C171.861 73.8875 171.941 73.5974 172.101 73.3378C172.26 73.0779 172.471 72.8681 172.732 72.7078C172.991 72.5476 173.281 72.4676 173.601 72.4676H177.769C178.099 72.4676 178.393 72.5476 178.652 72.7078C178.913 72.8681 179.121 73.0779 179.277 73.3378C179.431 73.5974 179.511 73.8875 179.511 74.2077V77.0129H173.406V78.2078C173.406 78.277 173.429 78.3354 173.478 78.3831C173.525 78.4307 173.583 78.4544 173.653 78.4544H179.511V80H173.601ZM173.406 75.5975H177.964V74.2598C177.964 74.1904 177.941 74.132 177.894 74.0844C177.845 74.0369 177.787 74.0129 177.719 74.0129H173.653C173.583 74.0129 173.525 74.0369 173.478 74.0844C173.429 74.132 173.406 74.1904 173.406 74.2598V75.5975Z"
        fill="#08354B" />
</svg>